<svg xmlns="http://www.w3.org/2000/svg" xml:space="preserve" width="175.748" height="135.807" viewBox="0 0 175.748 135.807"><path d="m393.252 364.146-32.134-33.553-109.887-.177-33.727 33.73 84.767 102.077z" clip-rule="evenodd" style="fill:#ed1c24;fill-rule:evenodd" transform="translate(-217.504 -330.416)"/><path d="m14.743 34.335 22.442-23.192 14.099.174C29.513 21.843 24.238 36.133 27.835 49.153L14.743 34.335zm49.641 59.696c17.431 4.776 28.188 5.563 43.69.806l-22.32 23.392-21.37-24.198zM34.816 60.515 53.01 80.947c2.764-10.703 31.508-4.161 34.03 4.604 12.048 3.964 32.579-2.781 32.866-9.063-.056-15.153-70.027-2.581-85.09-15.973zm107.468-45.62-.488 21.615h-28.342c.384-14.291-10.476-21.309-31.384-20.733-14.722.288-28.868 6.042-29.06 15.537 0 22.539 79.268-1.822 85.598 29.636l22.988-26.584-19.312-19.471zm-33.712-3.498 15.035.018-3.295 11.19c-2.771-6.775-7.436-9.248-11.74-11.208z" clip-rule="evenodd" style="fill:#fff200;fill-rule:evenodd"/></svg>
